<svg width="22" height="16" viewBox="0 0 22 16" fill="none" xmlns="http://www.w3.org/2000/svg">
<path d="M3.252 16C2.55867 16 1.96833 15.7567 1.481 15.27C0.993667 14.7847 0.75 14.1947 0.75 13.5C0.75 12.9013 0.940667 12.3727 1.322 11.914C1.70333 11.4553 2.17933 11.1707 2.75 11.06V4.94C2.17933 4.83 1.70333 4.54567 1.322 4.087C0.940667 3.62767 0.75 3.09867 0.75 2.5C0.75 1.80533 0.993 1.21533 1.479 0.73C1.96433 0.243333 2.554 0 3.248 0C3.942 0 4.53233 0.243333 5.019 0.73C5.50567 1.21667 5.74933 1.80667 5.75 2.5C5.75 3.09867 5.55933 3.62767 5.178 4.087C4.79667 4.54567 4.32067 4.83033 3.75 4.941V7.5H10.5V4.94C9.92933 4.83 9.45333 4.54567 9.072 4.087C8.69067 3.62767 8.5 3.09867 8.5 2.5C8.5 1.80533 8.743 1.21533 9.229 0.73C9.71433 0.243333 10.304 0 10.998 0C11.692 0 12.2823 0.243333 12.769 0.73C13.2557 1.21667 13.4993 1.80667 13.5 2.5C13.5 3.09867 13.3093 3.62767 12.928 4.087C12.5467 4.54567 12.0707 4.83033 11.5 4.941V7.5H16.77C17.1813 7.5 17.534 7.353 17.828 7.059C18.122 6.76433 18.269 6.41133 18.269 6V4.94C17.699 4.83 17.223 4.54567 16.841 4.087C16.4597 3.62767 16.269 3.09867 16.269 2.5C16.269 1.80533 16.512 1.21533 16.998 0.73C17.4833 0.243333 18.073 0 18.767 0C19.461 0 20.0517 0.243333 20.539 0.73C21.0263 1.21667 21.2697 1.80667 21.269 2.5C21.269 3.09867 21.0783 3.62767 20.697 4.087C20.3157 4.54567 19.8397 4.83033 19.269 4.941V6C19.269 6.69467 19.026 7.28467 18.54 7.77C18.054 8.25667 17.464 8.5 16.77 8.5H11.5V11.06C12.0707 11.17 12.5467 11.4543 12.928 11.913C13.3093 12.3723 13.5 12.9013 13.5 13.5C13.5 14.1947 13.2573 14.7847 12.772 15.27C12.286 15.7567 11.696 16 11.002 16C10.308 16 9.71767 15.7567 9.231 15.27C8.74433 14.7833 8.50067 14.1933 8.5 13.5C8.5 12.9013 8.69067 12.3727 9.072 11.914C9.45333 11.4553 9.92933 11.1707 10.5 11.06V8.5H3.75V11.06C4.32067 11.17 4.79667 11.4543 5.178 11.913C5.55933 12.3723 5.75 12.9013 5.75 13.5C5.75 14.1947 5.50733 14.7847 5.022 15.27C4.536 15.7567 3.946 16 3.252 16ZM3.25 15C3.66133 15 4.01433 14.853 4.309 14.559C4.603 14.2643 4.75 13.9113 4.75 13.5C4.75 13.0887 4.603 12.7357 4.309 12.441C4.01433 12.147 3.66133 12 3.25 12C2.83867 12 2.48567 12.147 2.191 12.441C1.897 12.7357 1.75 13.0887 1.75 13.5C1.75 13.9113 1.897 14.2643 2.191 14.559C2.48567 14.853 2.83867 15 3.25 15ZM3.25 4C3.66133 4 4.01433 3.853 4.309 3.559C4.603 3.26433 4.75 2.91133 4.75 2.5C4.75 2.08867 4.603 1.73567 4.309 1.441C4.01433 1.147 3.66133 1 3.25 1C2.83867 1 2.48567 1.147 2.191 1.441C1.897 1.73567 1.75 2.08867 1.75 2.5C1.75 2.91133 1.897 3.26433 2.191 3.559C2.48567 3.853 2.83867 4 3.25 4ZM11 15C11.4113 15 11.7643 14.853 12.059 14.559C12.353 14.2643 12.5 13.9113 12.5 13.5C12.5 13.0887 12.353 12.7357 12.059 12.441C11.765 12.1463 11.412 11.9993 11 12C10.588 12.0007 10.235 12.1477 9.941 12.441C9.647 12.7343 9.5 13.0873 9.5 13.5C9.5 13.9127 9.647 14.2657 9.941 14.559C10.2357 14.853 10.5887 15 11 15ZM11 4C11.4113 4 11.7643 3.853 12.059 3.559C12.353 3.26433 12.5 2.91133 12.5 2.5C12.5 2.08867 12.353 1.73567 12.059 1.441C11.7643 1.147 11.4113 1 11 1C10.5887 1 10.2357 1.147 9.941 1.441C9.64633 1.735 9.49933 2.088 9.5 2.5C9.50067 2.912 9.64767 3.265 9.941 3.559C10.2357 3.853 10.5887 4 11 4ZM18.77 4C19.1813 4 19.534 3.853 19.828 3.559C20.122 3.26433 20.269 2.91133 20.269 2.5C20.269 2.08867 20.122 1.73567 19.828 1.441C19.534 1.147 19.181 1 18.769 1C18.357 1 18.0043 1.147 17.711 1.441C17.4163 1.73567 17.269 2.08867 17.269 2.5C17.269 2.91133 17.4163 3.26433 17.711 3.559C18.005 3.853 18.3577 4 18.769 4" fill="#212121"/>
</svg>
