<svg width="46" height="34" viewBox="0 0 46 34" fill="none" xmlns="http://www.w3.org/2000/svg">
<path d="M37.0156 16.501C35.6284 16.501 34.5 15.3725 34.5 13.9854C34.5 12.5982 35.6284 11.4697 37.0156 11.4697C38.4028 11.4697 39.5312 12.5982 39.5312 13.9854C39.5312 15.3725 38.4028 16.501 37.0156 16.501ZM37.0156 12.9072C36.4212 12.9072 35.9375 13.3909 35.9375 13.9854C35.9375 14.5798 36.4212 15.0635 37.0156 15.0635C37.61 15.0635 38.0938 14.5798 38.0938 13.9854C38.0938 13.3909 37.61 12.9072 37.0156 12.9072Z" fill="#212121"/>
<path d="M37.0156 18.6885C34.4396 18.6885 32.3438 16.5926 32.3438 14.0166C32.3438 11.4406 34.4396 9.34473 37.0156 9.34473C39.5916 9.34473 41.6875 11.4406 41.6875 14.0166C41.6875 16.5926 39.5916 18.6885 37.0156 18.6885ZM37.0156 10.7822C35.2324 10.7822 33.7812 12.2334 33.7812 14.0166C33.7812 15.7998 35.2324 17.251 37.0156 17.251C38.7988 17.251 40.25 15.7998 40.25 14.0166C40.25 12.2334 38.7988 10.7822 37.0156 10.7822Z" fill="#212121"/>
<path d="M9.70312 16.501C8.31594 16.501 7.1875 15.3725 7.1875 13.9854C7.1875 12.5982 8.31594 11.4697 9.70312 11.4697C11.0903 11.4697 12.2188 12.5982 12.2188 13.9854C12.2188 15.3725 11.0903 16.501 9.70312 16.501ZM9.70312 12.9072C9.10872 12.9072 8.625 13.3909 8.625 13.9854C8.625 14.5798 9.10872 15.0635 9.70312 15.0635C10.2975 15.0635 10.7812 14.5798 10.7812 13.9854C10.7812 13.3909 10.2975 12.9072 9.70312 12.9072Z" fill="#212121"/>
<path d="M9.70312 18.6885C7.12713 18.6885 5.03125 16.5926 5.03125 14.0166C5.03125 11.4406 7.12713 9.34473 9.70312 9.34473C12.2791 9.34473 14.375 11.4406 14.375 14.0166C14.375 16.5926 12.2791 18.6885 9.70312 18.6885ZM9.70312 10.7822C7.91991 10.7822 6.46875 12.2334 6.46875 14.0166C6.46875 15.7998 7.91991 17.251 9.70312 17.251C11.4863 17.251 12.9375 15.7998 12.9375 14.0166C12.9375 12.2334 11.4863 10.7822 9.70312 10.7822Z" fill="#212121"/>
<path d="M45.2812 15.8135H40.8192C40.4218 15.8135 40.1005 15.4922 40.1005 15.0947C40.1005 14.6973 40.4218 14.376 40.8192 14.376H44.5625V9.51435L43.9192 8.22851C43.8064 8.00282 43.8215 7.73832 43.9501 7.5306C42.297 7.06773 38.6235 6.23541 32.2877 5.74882C32.1518 5.73804 32.021 5.68916 31.9125 5.60723C29.228 3.59401 25.8721 1.43848 25.1562 1.43848H16.5312C14.3132 1.43848 7.71003 4.49676 5.35253 5.67551C5.25334 5.7251 5.14266 5.75098 5.03125 5.75098H2.15625V7.18848C2.15625 7.37966 2.08078 7.56223 1.94566 7.69663L1.4375 8.20479V12.6409L3.38316 14.5866C3.66419 14.8676 3.66419 15.3219 3.38316 15.6029C3.10212 15.8839 2.64788 15.8839 2.36684 15.6029L0.210594 13.4466C0.0754688 13.3115 0 13.1297 0 12.9385V7.90723C0 7.71604 0.0754688 7.53348 0.210594 7.39907L0.71875 6.89091V5.03223C0.71875 4.63476 1.04003 4.31348 1.4375 4.31348H4.86234C6.27828 3.61126 13.6987 0.000976562 16.5312 0.000976562H25.1562C26.6548 0.000976562 31.0407 3.1642 32.6068 4.33145C41.8003 5.05595 45.3998 6.4726 45.5501 6.53298C45.775 6.62354 45.9389 6.82119 45.9856 7.05838C46.0331 7.29629 45.9576 7.5421 45.7851 7.71173L45.4394 8.05313L45.9245 9.02345C45.9741 9.12263 46 9.23332 46 9.34473V15.0947C46 15.4922 45.6787 15.8135 45.2812 15.8135Z" fill="#212121"/>
<path d="M16.5301 15.8135H13.5071C13.1096 15.8135 12.7883 15.4922 12.7883 15.0947C12.7883 14.6973 13.1096 14.376 13.5071 14.376H16.5301C16.9276 14.376 17.2489 14.6973 17.2489 15.0947C17.2489 15.4922 16.9276 15.8135 16.5301 15.8135Z" fill="#212121"/>
<path d="M32.3439 5.75036H17.2502C17.2107 5.75036 17.1711 5.74676 17.1323 5.74029L12.8198 5.02154C12.5424 4.97554 12.3174 4.77142 12.2441 4.50045C12.1701 4.22948 12.2613 3.94054 12.477 3.76014L16.7895 0.166387C17.0957 -0.0873315 17.5478 -0.0463625 17.8022 0.258387C18.0566 0.563856 18.0149 1.01739 17.7102 1.27111L14.6016 3.86148L17.3098 4.31286H32.3439C32.7414 4.31286 33.0627 4.63414 33.0627 5.03161C33.0627 5.42908 32.7414 5.75036 32.3439 5.75036Z" fill="#212121"/>
<path d="M5.8995 15.8135H2.875C2.47753 15.8135 2.15625 15.4922 2.15625 15.0947C2.15625 14.6973 2.47753 14.376 2.875 14.376H5.8995C6.29697 14.376 6.61825 14.6973 6.61825 15.0947C6.61825 15.4922 6.29697 15.8135 5.8995 15.8135Z" fill="#212121"/>
<path d="M17.25 5.75098C16.8525 5.75098 16.5312 5.4297 16.5312 5.03223V0.719727C16.5312 0.322258 16.8525 0.000976562 17.25 0.000976562C17.6475 0.000976562 17.9688 0.322258 17.9688 0.719727V5.03223C17.9688 5.4297 17.6475 5.75098 17.25 5.75098Z" fill="#212121"/>
<path d="M22.999 22.2803C19.0358 22.2803 15.8115 19.056 15.8115 15.0928C15.8115 11.1296 19.0358 7.90527 22.999 7.90527C26.9622 7.90527 30.1865 11.1296 30.1865 15.0928C30.1865 19.056 26.9622 22.2803 22.999 22.2803ZM22.999 9.34277C19.8286 9.34277 17.249 11.9224 17.249 15.0928C17.249 18.2632 19.8286 20.8428 22.999 20.8428C26.1694 20.8428 28.749 18.2632 28.749 15.0928C28.749 11.9224 26.1694 9.34277 22.999 9.34277Z" fill="#212121"/>
<path d="M22.999 20.124C20.2254 20.124 17.9678 17.8664 17.9678 15.0928C17.9678 12.3191 20.2254 10.0615 22.999 10.0615C25.7727 10.0615 28.0303 12.3191 28.0303 15.0928C28.0303 17.8664 25.7727 20.124 22.999 20.124ZM22.999 11.499C21.0174 11.499 19.4053 13.1112 19.4053 15.0928C19.4053 17.0744 21.0174 18.6865 22.999 18.6865C24.9806 18.6865 26.5928 17.0744 26.5928 15.0928C26.5928 13.1112 24.9806 11.499 22.999 11.499Z" fill="#212121"/>
<path d="M33.2127 15.8115H29.4688C29.0713 15.8115 28.75 15.4902 28.75 15.0928C28.75 14.6953 29.0713 14.374 29.4688 14.374H33.2127C33.6102 14.374 33.9315 14.6953 33.9315 15.0928C33.9315 15.4902 33.6102 15.8115 33.2127 15.8115Z" fill="#212121"/>
<path d="M24.0771 25.1555C23.6797 25.1555 23.3584 24.8343 23.3584 24.4368V21.4727C23.3584 21.0752 23.6797 20.7539 24.0771 20.7539C24.4746 20.7539 24.7959 21.0752 24.7959 21.4727V24.4368C24.7959 24.8343 24.4746 25.1555 24.0771 25.1555Z" fill="#212121"/>
<path d="M21.9209 25.1555C21.5234 25.1555 21.2021 24.8343 21.2021 24.4368V21.4727C21.2021 21.0752 21.5234 20.7539 21.9209 20.7539C22.3184 20.7539 22.6396 21.0752 22.6396 21.4727V24.4368C22.6396 24.8343 22.3184 25.1555 21.9209 25.1555Z" fill="#212121"/>
<path d="M25.1562 25.1553H20.8438C20.4463 25.1553 20.125 24.834 20.125 24.4365C20.125 24.0391 20.4463 23.7178 20.8438 23.7178H25.1562C25.5537 23.7178 25.875 24.0391 25.875 24.4365C25.875 24.834 25.5537 25.1553 25.1562 25.1553Z" fill="#212121"/>
<path d="M25.1562 30.906C24.7588 30.906 24.4375 30.5847 24.4375 30.1872V24.4365C24.4375 24.0391 24.7588 23.7178 25.1562 23.7178C25.5537 23.7178 25.875 24.0391 25.875 24.4365V30.1872C25.875 30.5847 25.5537 30.906 25.1562 30.906Z" fill="#212121"/>
<path d="M20.8438 30.906C20.4463 30.906 20.125 30.5847 20.125 30.1872V24.4365C20.125 24.0391 20.4463 23.7178 20.8438 23.7178C21.2412 23.7178 21.5625 24.0391 21.5625 24.4365V30.1872C21.5625 30.5847 21.2412 30.906 20.8438 30.906Z" fill="#212121"/>
<path d="M23 33.0596C21.4144 33.0596 20.125 31.7701 20.125 30.1846C20.125 29.7871 20.4463 29.4658 20.8438 29.4658C21.2412 29.4658 21.5625 29.7871 21.5625 30.1846C21.5625 30.9774 22.2072 31.6221 23 31.6221C23.7928 31.6221 24.4375 30.9774 24.4375 30.1846C24.4375 29.7871 24.7588 29.4658 25.1562 29.4658C25.5537 29.4658 25.875 29.7871 25.875 30.1846C25.875 31.7701 24.5856 33.0596 23 33.0596Z" fill="#212121"/>
<path d="M39.5276 25.1562H28.7463C28.3489 25.1562 28.0276 24.835 28.0276 24.4375C28.0276 24.04 28.3489 23.7188 28.7463 23.7188H39.5276C39.9251 23.7188 40.2463 24.04 40.2463 24.4375C40.2463 24.835 39.9251 25.1562 39.5276 25.1562Z" fill="#212121"/>
<path d="M39.5276 27.3125H28.7463C28.3489 27.3125 28.0276 26.9912 28.0276 26.5938C28.0276 26.1963 28.3489 25.875 28.7463 25.875H39.5276C39.9251 25.875 40.2463 26.1963 40.2463 26.5938C40.2463 26.9912 39.9251 27.3125 39.5276 27.3125Z" fill="#212121"/>
<path d="M39.5276 29.4688H28.7463C28.3489 29.4688 28.0276 29.1475 28.0276 28.75C28.0276 28.3525 28.3489 28.0312 28.7463 28.0312H39.5276C39.9251 28.0312 40.2463 28.3525 40.2463 28.75C40.2463 29.1475 39.9251 29.4688 39.5276 29.4688Z" fill="#212121"/>
<path d="M33.7776 31.625H28.7463C28.3489 31.625 28.0276 31.3037 28.0276 30.9062C28.0276 30.5088 28.3489 30.1875 28.7463 30.1875H33.7776C34.1751 30.1875 34.4963 30.5088 34.4963 30.9062C34.4963 31.3037 34.1751 31.625 33.7776 31.625Z" fill="#212121"/>
<path d="M17.2463 25.1562H6.46509C6.06762 25.1562 5.74634 24.835 5.74634 24.4375C5.74634 24.04 6.06762 23.7188 6.46509 23.7188H17.2463C17.6438 23.7188 17.9651 24.04 17.9651 24.4375C17.9651 24.835 17.6438 25.1562 17.2463 25.1562Z" fill="#212121"/>
<path d="M17.2463 27.3125H6.46509C6.06762 27.3125 5.74634 26.9912 5.74634 26.5938C5.74634 26.1963 6.06762 25.875 6.46509 25.875H17.2463C17.6438 25.875 17.9651 26.1963 17.9651 26.5938C17.9651 26.9912 17.6438 27.3125 17.2463 27.3125Z" fill="#212121"/>
<path d="M17.2463 29.4688H6.46509C6.06762 29.4688 5.74634 29.1475 5.74634 28.75C5.74634 28.3525 6.06762 28.0312 6.46509 28.0312H17.2463C17.6438 28.0312 17.9651 28.3525 17.9651 28.75C17.9651 29.1475 17.6438 29.4688 17.2463 29.4688Z" fill="#212121"/>
<path d="M17.2463 31.625H12.2151C11.8176 31.625 11.4963 31.3037 11.4963 30.9062C11.4963 30.5088 11.8176 30.1875 12.2151 30.1875H17.2463C17.6438 30.1875 17.9651 30.5088 17.9651 30.9062C17.9651 31.3037 17.6438 31.625 17.2463 31.625Z" fill="#212121"/>
</svg>
