<svg width="38" height="29" viewBox="0 0 38 29" fill="none" xmlns="http://www.w3.org/2000/svg">
<path d="M36.7013 13.9434H35.217C34.5015 13.9434 33.9181 14.5252 33.9181 15.2422V16.7265H31.8029V15.6133C31.8029 14.6929 31.0548 13.9434 30.133 13.9434H26.5319L24.3261 10.2962C24.0263 9.79898 23.4771 9.49023 22.8982 9.49023H20.6152V5.77932H22.2851C23.0006 5.77932 23.5839 5.19746 23.5839 4.48048V2.25391C23.5839 1.53845 23.0021 0.955078 22.2851 0.955078H13.3787C12.6632 0.955078 12.0799 1.53693 12.0799 2.25391V4.48048C12.0799 5.19594 12.6617 5.77932 13.3787 5.77932H15.0486V9.49023H12.3426C11.5202 9.49023 10.827 10.0795 10.695 10.8915L10.1962 13.9433H6.01318C5.70591 13.9433 5.45656 14.1927 5.45656 14.4999V15.0566H4.08202V13.3867C4.08202 12.6712 3.50017 12.0878 2.78319 12.0878H1.29884C0.583374 12.0878 0 12.6697 0 13.3867V22.2931C0 23.0085 0.581854 23.5919 1.29884 23.5919H2.78319C3.49865 23.5919 4.08202 23.0101 4.08202 22.2931V20.6232H5.45656V21.1798C5.45656 21.4871 5.70593 21.7364 6.01318 21.7364H11.5528L13.3133 26.9139C13.5433 27.5908 14.1801 28.045 14.8941 28.045H30.1328C31.0532 28.045 31.8027 27.2969 31.8027 26.3751V25.2618H33.918V26.7462C33.918 27.4616 34.4998 28.045 35.2168 28.045H36.7012C37.4166 28.045 38 27.4632 38 26.7462V15.2425C38 14.527 37.4183 13.9434 36.7013 13.9434ZM2.96882 22.2931C2.96882 22.3955 2.88569 22.4786 2.78327 22.4786H1.29892C1.1965 22.4786 1.11337 22.3955 1.11337 22.2931V13.3867C1.11337 13.2842 1.1965 13.2011 1.29892 13.2011H2.78327C2.88569 13.2011 2.96882 13.2842 2.96882 13.3867V22.2931ZM4.0821 19.5099V16.17H5.45663V19.5099H4.0821ZM13.1933 4.48056V2.25399C13.1933 2.15157 13.2765 2.06844 13.3789 2.06844H22.2853C22.3877 2.06844 22.4708 2.15157 22.4708 2.25399V4.48056C22.4708 4.58298 22.3877 4.6661 22.2853 4.6661H13.3789C13.2765 4.6661 13.1933 4.58298 13.1933 4.48056ZM16.1621 5.77939H19.5019V9.49031H18.3886V7.63485C18.3886 7.32759 18.1393 7.07823 17.832 7.07823C17.5248 7.07823 17.2754 7.3276 17.2754 7.63485V9.49031H16.1621L16.1621 5.77939ZM6.56862 15.0567H7.6819V20.6229H6.56862V15.0567ZM14.3662 26.5547L12.5063 21.0876V18.4455C12.5063 18.1382 12.2569 17.8889 11.9497 17.8889C11.6424 17.8889 11.393 18.1382 11.393 18.4455V20.6216H8.79541V15.0554H10.6687C10.9418 15.0554 11.1734 14.8579 11.2179 14.5892L11.7938 11.0698C11.8384 10.7997 12.0699 10.6037 12.343 10.6037H22.8983C23.0912 10.6037 23.2753 10.7076 23.3748 10.8724L25.6607 14.6545V18.5822C25.6607 18.8895 25.9101 19.1388 26.2173 19.1388C26.5246 19.1388 26.7739 18.8895 26.7739 18.5822V15.0568H30.1316C30.4388 15.0568 30.6882 15.3062 30.6882 15.6135V22.4785H24.6261C23.9061 22.4785 23.2693 22.9372 23.0407 23.62L21.9364 26.9316H14.8916C14.6541 26.9316 14.4403 26.7802 14.3646 26.5546L14.3662 26.5547ZM30.1331 26.9317H23.1119L24.0975 23.9734C24.1732 23.7448 24.3855 23.5934 24.6259 23.5934H30.6881V26.3765C30.6881 26.6838 30.4387 26.9332 30.1314 26.9332L30.1331 26.9317ZM31.803 24.1485V17.8398H33.9182V24.1485H31.803ZM36.887 26.7462C36.887 26.8486 36.8039 26.9317 36.7015 26.9317H35.2171C35.1147 26.9317 35.0316 26.8486 35.0316 26.7462V15.2425C35.0316 15.14 35.1147 15.0569 35.2171 15.0569H36.7015C36.8039 15.0569 36.887 15.14 36.887 15.2425V26.7462Z" fill="#212121"/>
<path d="M25.4941 24.7051H25.123C24.8158 24.7051 24.5664 24.9545 24.5664 25.2617C24.5664 25.569 24.8158 25.8183 25.123 25.8183H25.4941C25.8014 25.8183 26.0507 25.5689 26.0507 25.2617C26.0507 24.9544 25.8014 24.7051 25.4941 24.7051Z" fill="#212121"/>
<path d="M28.4629 24.7051H28.0918C27.7845 24.7051 27.5352 24.9545 27.5352 25.2617C27.5352 25.569 27.7845 25.8183 28.0918 25.8183H28.4629C28.7701 25.8183 29.0195 25.5689 29.0195 25.2617C29.0195 24.9544 28.7701 24.7051 28.4629 24.7051Z" fill="#212121"/>
<path d="M23.6386 17.4687C23.6386 14.9111 21.5575 12.8301 19 12.8301C16.4424 12.8301 14.3613 14.9112 14.3613 17.4687C14.3613 20.0263 16.4424 22.1074 19 22.1074C21.5575 22.1074 23.6386 20.0263 23.6386 17.4687ZM15.4747 17.4687C15.4747 15.5242 17.0571 13.9434 19.0001 13.9434C20.9446 13.9434 22.5255 15.5257 22.5255 17.4687C22.5255 19.4133 20.9431 20.9941 19.0001 20.9941C17.0556 20.9941 15.4747 19.4117 15.4747 17.4687Z" fill="#212121"/>
<path d="M21.7832 17.4687C21.7832 17.1615 21.5339 16.9121 21.2266 16.9121H16.7734C16.4662 16.9121 16.2168 17.1615 16.2168 17.4687C16.2168 17.776 16.4662 18.0254 16.7734 18.0254H21.2266C21.5339 18.0254 21.7832 17.776 21.7832 17.4687Z" fill="#212121"/>
<path d="M17.8867 16.1699H20.1133C20.4205 16.1699 20.6699 15.9205 20.6699 15.6133C20.6699 15.306 20.4205 15.0566 20.1133 15.0566H17.8867C17.5794 15.0566 17.3301 15.306 17.3301 15.6133C17.3301 15.9205 17.5795 16.1699 17.8867 16.1699Z" fill="#212121"/>
<path d="M20.6699 19.3242C20.6699 19.0169 20.4205 18.7676 20.1133 18.7676H17.8867C17.5794 18.7676 17.3301 19.017 17.3301 19.3242C17.3301 19.6315 17.5795 19.8808 17.8867 19.8808H20.1133C20.4205 19.8808 20.6699 19.6314 20.6699 19.3242Z" fill="#212121"/>
</svg>
