<svg width="158" height="46" viewBox="0 0 158 46" fill="none" xmlns="http://www.w3.org/2000/svg">
<path d="M1.875 16C1.875 12.9624 4.33743 10.5 7.375 10.5H26.1924C29.23 10.5 31.6924 12.9624 31.6924 16V30C31.6924 33.0376 29.23 35.5 26.1924 35.5H7.375C4.33743 35.5 1.875 33.0376 1.875 30V16Z" fill="url(#paint0_linear_572_16848)"/>
<path d="M1.875 16C1.875 12.9624 4.33743 10.5 7.375 10.5H26.1924C29.23 10.5 31.6924 12.9624 31.6924 16V30C31.6924 33.0376 29.23 35.5 26.1924 35.5H7.375C4.33743 35.5 1.875 33.0376 1.875 30V16Z" stroke="#E0E0E0"/>
<path d="M14.693 28.065C14.225 28.065 13.809 28 13.445 27.87C13.0897 27.7313 12.8037 27.5017 12.587 27.181C12.379 26.8517 12.262 26.3967 12.236 25.816L12.028 21.292H13.081L13.289 25.582C13.315 25.9893 13.3887 26.297 13.51 26.505C13.6313 26.7043 13.8003 26.8387 14.017 26.908C14.2423 26.9687 14.511 26.999 14.823 26.999C15.005 26.999 15.135 27.051 15.213 27.155C15.2997 27.2503 15.343 27.3673 15.343 27.506C15.343 27.6447 15.2823 27.7747 15.161 27.896C15.0397 28.0087 14.8837 28.065 14.693 28.065ZM12.73 26.635C12.236 26.791 11.755 26.869 11.287 26.869C10.819 26.869 10.3943 26.7997 10.013 26.661C9.63167 26.5223 9.32833 26.323 9.103 26.063C8.87767 25.7943 8.765 25.4737 8.765 25.101C8.765 24.737 8.856 24.3947 9.038 24.074C9.22867 23.7533 9.48433 23.4673 9.805 23.216C10.1343 22.9647 10.5113 22.7567 10.936 22.592C11.3693 22.4187 11.8287 22.3017 12.314 22.241L12.496 23.333C12.0627 23.3503 11.677 23.411 11.339 23.515C11.0097 23.6103 10.728 23.736 10.494 23.892C10.2687 24.048 10.0953 24.217 9.974 24.399C9.85267 24.581 9.792 24.7587 9.792 24.932C9.792 25.1227 9.86133 25.2787 10 25.4C10.1387 25.5213 10.3163 25.6167 10.533 25.686C10.7497 25.7467 10.988 25.7857 11.248 25.803C11.508 25.8117 11.7593 25.803 12.002 25.777C12.2447 25.7423 12.4527 25.6947 12.626 25.634L12.73 26.635ZM12.457 19.797C12.275 19.797 12.119 19.7363 11.989 19.615C11.8677 19.485 11.807 19.3333 11.807 19.16C11.807 18.9867 11.8677 18.835 11.989 18.705C12.119 18.575 12.275 18.51 12.457 18.51C12.6303 18.51 12.7777 18.575 12.899 18.705C13.029 18.835 13.094 18.9867 13.094 19.16C13.094 19.3333 13.029 19.485 12.899 19.615C12.7777 19.7363 12.6303 19.797 12.457 19.797ZM10.676 19.797C10.494 19.797 10.338 19.7363 10.208 19.615C10.0867 19.485 10.026 19.3333 10.026 19.16C10.026 18.9867 10.0867 18.835 10.208 18.705C10.338 18.575 10.494 18.51 10.676 18.51C10.8493 18.51 10.9967 18.575 11.118 18.705C11.248 18.835 11.313 18.9867 11.313 19.16C11.313 19.3333 11.248 19.485 11.118 19.615C10.9967 19.7363 10.8493 19.797 10.676 19.797ZM14.6973 28.065L14.8273 26.999C15.3473 26.999 15.8369 26.9513 16.2963 26.856C16.7556 26.752 17.1759 26.6177 17.5573 26.453C17.9473 26.2797 18.2809 26.0847 18.5583 25.868C18.8356 25.6427 19.0479 25.413 19.1953 25.179C19.3513 24.9363 19.4293 24.698 19.4293 24.464C19.4293 24.3513 19.3903 24.2387 19.3123 24.126C19.2343 24.0047 19.0999 23.905 18.9093 23.827C18.7273 23.749 18.4803 23.71 18.1683 23.71C17.9776 23.71 17.7653 23.736 17.5313 23.788C17.2973 23.84 17.0719 23.9137 16.8553 24.009C16.6473 24.0957 16.4739 24.1953 16.3353 24.308C16.5693 24.4987 16.7859 24.685 16.9853 24.867C17.1933 25.049 17.4056 25.2483 17.6223 25.465C17.8389 25.673 18.0729 25.9113 18.3243 26.18C18.5236 26.3273 18.7446 26.453 18.9873 26.557C19.2386 26.661 19.5073 26.7477 19.7933 26.817C20.0879 26.8777 20.3869 26.9253 20.6903 26.96C20.9936 26.986 21.2969 26.999 21.6003 26.999C21.7823 26.999 21.9123 27.051 21.9903 27.155C22.0769 27.2503 22.1203 27.3673 22.1203 27.506C22.1203 27.6447 22.0596 27.7747 21.9383 27.896C21.8169 28.0087 21.6609 28.065 21.4703 28.065C20.9936 28.065 20.5039 28.0217 20.0013 27.935C19.5073 27.8397 19.0436 27.701 18.6103 27.519C18.1769 27.3283 17.8086 27.09 17.5053 26.804C17.3579 26.6133 17.1933 26.4227 17.0113 26.232C16.8293 26.0413 16.6299 25.8507 16.4133 25.66C16.2053 25.4607 15.9799 25.2743 15.7373 25.101C15.6853 25.0577 15.6333 24.9797 15.5813 24.867C15.5293 24.7543 15.4859 24.6373 15.4513 24.516C15.4166 24.3947 15.3993 24.3037 15.3993 24.243C15.3993 24.113 15.4816 23.957 15.6463 23.775C15.8109 23.593 16.0319 23.4197 16.3093 23.255C16.5866 23.0817 16.9029 22.9387 17.2583 22.826C17.6136 22.7133 17.9819 22.657 18.3633 22.657C18.8573 22.657 19.2559 22.7307 19.5593 22.878C19.8713 23.0253 20.0966 23.216 20.2353 23.45C20.3826 23.6753 20.4563 23.918 20.4563 24.178C20.4563 24.5593 20.3609 24.9407 20.1703 25.322C19.9796 25.6947 19.7066 26.0457 19.3513 26.375C18.9959 26.7043 18.5799 26.999 18.1033 27.259C17.6266 27.5103 17.0979 27.7097 16.5173 27.857C15.9453 27.9957 15.3386 28.065 14.6973 28.065ZM18.2723 21.318C18.0903 21.318 17.9343 21.2573 17.8043 21.136C17.6829 21.006 17.6223 20.8543 17.6223 20.681C17.6223 20.5077 17.6829 20.356 17.8043 20.226C17.9343 20.096 18.0903 20.031 18.2723 20.031C18.4456 20.031 18.5929 20.096 18.7143 20.226C18.8443 20.356 18.9093 20.5077 18.9093 20.681C18.9093 20.8543 18.8443 21.006 18.7143 21.136C18.5929 21.2573 18.4456 21.318 18.2723 21.318ZM21.4766 28.065L21.5936 26.999C22.0876 26.999 22.4342 26.9513 22.6336 26.856C22.8329 26.7607 22.9456 26.5917 22.9716 26.349C23.0062 26.1063 23.0149 25.7683 22.9976 25.335L22.7506 18.718H23.8036L24.0636 25.218C24.0809 25.6773 24.0636 26.0847 24.0116 26.44C23.9682 26.7953 23.8556 27.0943 23.6736 27.337C23.5002 27.5797 23.2359 27.7617 22.8806 27.883C22.5339 28.0043 22.0659 28.065 21.4766 28.065Z" fill="#212121"/>
<path d="M40.2992 28V17.5H42.0242V28H40.2992ZM49.0082 28V23.845C49.0082 23.365 48.8532 22.97 48.5432 22.66C48.2432 22.35 47.8532 22.195 47.3732 22.195C47.0532 22.195 46.7682 22.265 46.5182 22.405C46.2682 22.545 46.0732 22.74 45.9332 22.99C45.7932 23.24 45.7232 23.525 45.7232 23.845L45.0782 23.485C45.0782 22.935 45.1982 22.45 45.4382 22.03C45.6782 21.6 46.0082 21.265 46.4282 21.025C46.8582 20.775 47.3382 20.65 47.8682 20.65C48.4082 20.65 48.8882 20.79 49.3082 21.07C49.7282 21.34 50.0582 21.695 50.2982 22.135C50.5382 22.565 50.6582 23.015 50.6582 23.485V28H49.0082ZM44.0732 28V20.8H45.7232V28H44.0732ZM54.6899 28.15C54.2899 28.15 53.9049 28.1 53.5349 28C53.1649 27.89 52.8249 27.74 52.5149 27.55C52.2049 27.35 51.9349 27.11 51.7049 26.83L52.7549 25.78C53.0049 26.07 53.2899 26.29 53.6099 26.44C53.9399 26.58 54.3099 26.65 54.7199 26.65C55.0899 26.65 55.3699 26.595 55.5599 26.485C55.7499 26.375 55.8449 26.215 55.8449 26.005C55.8449 25.785 55.7549 25.615 55.5749 25.495C55.3949 25.375 55.1599 25.275 54.8699 25.195C54.5899 25.105 54.2899 25.015 53.9699 24.925C53.6599 24.835 53.3599 24.715 53.0699 24.565C52.7899 24.405 52.5599 24.19 52.3799 23.92C52.1999 23.65 52.1099 23.3 52.1099 22.87C52.1099 22.41 52.2149 22.015 52.4249 21.685C52.6449 21.355 52.9499 21.1 53.3399 20.92C53.7399 20.74 54.2149 20.65 54.7649 20.65C55.3449 20.65 55.8549 20.755 56.2949 20.965C56.7449 21.165 57.1199 21.47 57.4199 21.88L56.3699 22.93C56.1599 22.67 55.9199 22.475 55.6499 22.345C55.3799 22.215 55.0699 22.15 54.7199 22.15C54.3899 22.15 54.1349 22.2 53.9549 22.3C53.7749 22.4 53.6849 22.545 53.6849 22.735C53.6849 22.935 53.7749 23.09 53.9549 23.2C54.1349 23.31 54.3649 23.405 54.6449 23.485C54.9349 23.565 55.2349 23.655 55.5449 23.755C55.8649 23.845 56.1649 23.975 56.4449 24.145C56.7349 24.305 56.9699 24.525 57.1499 24.805C57.3299 25.075 57.4199 25.43 57.4199 25.87C57.4199 26.57 57.1749 27.125 56.6849 27.535C56.1949 27.945 55.5299 28.15 54.6899 28.15ZM62.6352 28.15C62.0852 28.15 61.5952 28.035 61.1652 27.805C60.7352 27.565 60.3952 27.24 60.1452 26.83C59.9052 26.42 59.7852 25.955 59.7852 25.435V23.365C59.7852 22.845 59.9102 22.38 60.1602 21.97C60.4102 21.56 60.7502 21.24 61.1802 21.01C61.6102 20.77 62.0952 20.65 62.6352 20.65C63.2852 20.65 63.8702 20.82 64.3902 21.16C64.9202 21.49 65.3352 21.94 65.6352 22.51C65.9452 23.07 66.1002 23.705 66.1002 24.415C66.1002 25.115 65.9452 25.75 65.6352 26.32C65.3352 26.88 64.9202 27.325 64.3902 27.655C63.8702 27.985 63.2852 28.15 62.6352 28.15ZM58.7802 31V20.8H60.4302V22.735L60.1452 24.49L60.4302 26.23V31H58.7802ZM62.3652 26.59C62.7652 26.59 63.1152 26.5 63.4152 26.32C63.7252 26.13 63.9652 25.87 64.1352 25.54C64.3152 25.21 64.4052 24.83 64.4052 24.4C64.4052 23.97 64.3152 23.59 64.1352 23.26C63.9652 22.93 63.7252 22.675 63.4152 22.495C63.1152 22.305 62.7652 22.21 62.3652 22.21C61.9652 22.21 61.6102 22.305 61.3002 22.495C60.9902 22.675 60.7502 22.93 60.5802 23.26C60.4102 23.59 60.3252 23.97 60.3252 24.4C60.3252 24.83 60.4102 25.21 60.5802 25.54C60.7502 25.87 60.9902 26.13 61.3002 26.32C61.6102 26.5 61.9652 26.59 62.3652 26.59ZM70.8264 28.15C70.1064 28.15 69.4564 27.99 68.8764 27.67C68.3064 27.34 67.8514 26.89 67.5114 26.32C67.1814 25.75 67.0164 25.11 67.0164 24.4C67.0164 23.69 67.1814 23.055 67.5114 22.495C67.8414 21.925 68.2864 21.475 68.8464 21.145C69.4164 20.815 70.0464 20.65 70.7364 20.65C71.4064 20.65 71.9964 20.805 72.5064 21.115C73.0264 21.425 73.4314 21.85 73.7214 22.39C74.0214 22.93 74.1714 23.545 74.1714 24.235C74.1714 24.355 74.1614 24.48 74.1414 24.61C74.1314 24.73 74.1114 24.865 74.0814 25.015H68.1714V23.665H73.2264L72.6114 24.205C72.5914 23.765 72.5064 23.395 72.3564 23.095C72.2064 22.795 71.9914 22.565 71.7114 22.405C71.4414 22.245 71.1064 22.165 70.7064 22.165C70.2864 22.165 69.9214 22.255 69.6114 22.435C69.3014 22.615 69.0614 22.87 68.8914 23.2C68.7214 23.52 68.6364 23.905 68.6364 24.355C68.6364 24.805 68.7264 25.2 68.9064 25.54C69.0864 25.88 69.3414 26.145 69.6714 26.335C70.0014 26.515 70.3814 26.605 70.8114 26.605C71.1814 26.605 71.5214 26.54 71.8314 26.41C72.1514 26.28 72.4214 26.09 72.6414 25.84L73.6914 26.905C73.3414 27.315 72.9164 27.625 72.4164 27.835C71.9164 28.045 71.3864 28.15 70.8264 28.15ZM78.8091 28.15C78.0991 28.15 77.4541 27.985 76.8741 27.655C76.3041 27.325 75.8541 26.875 75.5241 26.305C75.1941 25.735 75.0291 25.1 75.0291 24.4C75.0291 23.69 75.1941 23.055 75.5241 22.495C75.8541 21.925 76.3041 21.475 76.8741 21.145C77.4541 20.815 78.0991 20.65 78.8091 20.65C79.3691 20.65 79.8891 20.76 80.3691 20.98C80.8591 21.19 81.2741 21.495 81.6141 21.895L80.5341 22.99C80.3241 22.74 80.0691 22.555 79.7691 22.435C79.4791 22.305 79.1591 22.24 78.8091 22.24C78.3991 22.24 78.0341 22.335 77.7141 22.525C77.4041 22.705 77.1591 22.955 76.9791 23.275C76.8091 23.595 76.7241 23.97 76.7241 24.4C76.7241 24.82 76.8091 25.195 76.9791 25.525C77.1591 25.845 77.4041 26.1 77.7141 26.29C78.0341 26.47 78.3991 26.56 78.8091 26.56C79.1591 26.56 79.4791 26.5 79.7691 26.38C80.0691 26.25 80.3241 26.06 80.5341 25.81L81.6141 26.905C81.2741 27.305 80.8591 27.615 80.3691 27.835C79.8891 28.045 79.3691 28.15 78.8091 28.15ZM83.7815 28V17.8H85.4315V28H83.7815ZM82.0565 22.3V20.8H87.1565V22.3H82.0565ZM88.3704 28V20.8H90.0204V28H88.3704ZM89.1954 19.48C88.9154 19.48 88.6804 19.385 88.4904 19.195C88.3104 19.005 88.2204 18.77 88.2204 18.49C88.2204 18.21 88.3104 17.975 88.4904 17.785C88.6804 17.595 88.9154 17.5 89.1954 17.5C89.4854 17.5 89.7204 17.595 89.9004 17.785C90.0804 17.975 90.1704 18.21 90.1704 18.49C90.1704 18.77 90.0804 19.005 89.9004 19.195C89.7204 19.385 89.4854 19.48 89.1954 19.48ZM95.1711 28.15C94.4711 28.15 93.8361 27.985 93.2661 27.655C92.6961 27.315 92.2411 26.86 91.9011 26.29C91.5711 25.72 91.4061 25.085 91.4061 24.385C91.4061 23.685 91.5711 23.055 91.9011 22.495C92.2411 21.935 92.6961 21.49 93.2661 21.16C93.8361 20.82 94.4711 20.65 95.1711 20.65C95.8811 20.65 96.5211 20.815 97.0911 21.145C97.6611 21.475 98.1111 21.925 98.4411 22.495C98.7811 23.055 98.9511 23.685 98.9511 24.385C98.9511 25.085 98.7811 25.72 98.4411 26.29C98.1111 26.86 97.6611 27.315 97.0911 27.655C96.5211 27.985 95.8811 28.15 95.1711 28.15ZM95.1711 26.56C95.5811 26.56 95.9411 26.47 96.2511 26.29C96.5711 26.1 96.8161 25.84 96.9861 25.51C97.1661 25.18 97.2561 24.805 97.2561 24.385C97.2561 23.965 97.1661 23.595 96.9861 23.275C96.8061 22.955 96.5611 22.705 96.2511 22.525C95.9411 22.335 95.5811 22.24 95.1711 22.24C94.7711 22.24 94.4111 22.335 94.0911 22.525C93.7811 22.705 93.5361 22.955 93.3561 23.275C93.1861 23.595 93.1011 23.965 93.1011 24.385C93.1011 24.805 93.1861 25.18 93.3561 25.51C93.5361 25.84 93.7811 26.1 94.0911 26.29C94.4111 26.47 94.7711 26.56 95.1711 26.56ZM105.258 28V23.845C105.258 23.365 105.103 22.97 104.793 22.66C104.493 22.35 104.103 22.195 103.623 22.195C103.303 22.195 103.018 22.265 102.768 22.405C102.518 22.545 102.323 22.74 102.183 22.99C102.043 23.24 101.973 23.525 101.973 23.845L101.328 23.485C101.328 22.935 101.448 22.45 101.688 22.03C101.928 21.6 102.258 21.265 102.678 21.025C103.108 20.775 103.588 20.65 104.118 20.65C104.658 20.65 105.138 20.79 105.558 21.07C105.978 21.34 106.308 21.695 106.548 22.135C106.788 22.565 106.908 23.015 106.908 23.485V28H105.258ZM100.323 28V20.8H101.973V28H100.323ZM112.998 23.545V22.12H115.653C116.183 22.12 116.593 21.985 116.883 21.715C117.183 21.435 117.333 21.05 117.333 20.56C117.333 20.12 117.188 19.75 116.898 19.45C116.608 19.15 116.198 19 115.668 19H112.998V17.5H115.743C116.403 17.5 116.983 17.635 117.483 17.905C117.983 18.165 118.368 18.525 118.638 18.985C118.918 19.435 119.058 19.95 119.058 20.53C119.058 21.14 118.918 21.67 118.638 22.12C118.368 22.57 117.983 22.92 117.483 23.17C116.983 23.42 116.403 23.545 115.743 23.545H112.998ZM111.813 28V17.5H113.538V28H111.813ZM117.573 28L113.898 23.44L115.503 22.855L119.748 28H117.573ZM123.927 28.15C123.207 28.15 122.557 27.99 121.977 27.67C121.407 27.34 120.952 26.89 120.612 26.32C120.282 25.75 120.117 25.11 120.117 24.4C120.117 23.69 120.282 23.055 120.612 22.495C120.942 21.925 121.387 21.475 121.947 21.145C122.517 20.815 123.147 20.65 123.837 20.65C124.507 20.65 125.097 20.805 125.607 21.115C126.127 21.425 126.532 21.85 126.822 22.39C127.122 22.93 127.272 23.545 127.272 24.235C127.272 24.355 127.262 24.48 127.242 24.61C127.232 24.73 127.212 24.865 127.182 25.015H121.272V23.665H126.327L125.712 24.205C125.692 23.765 125.607 23.395 125.457 23.095C125.307 22.795 125.092 22.565 124.812 22.405C124.542 22.245 124.207 22.165 123.807 22.165C123.387 22.165 123.022 22.255 122.712 22.435C122.402 22.615 122.162 22.87 121.992 23.2C121.822 23.52 121.737 23.905 121.737 24.355C121.737 24.805 121.827 25.2 122.007 25.54C122.187 25.88 122.442 26.145 122.772 26.335C123.102 26.515 123.482 26.605 123.912 26.605C124.282 26.605 124.622 26.54 124.932 26.41C125.252 26.28 125.522 26.09 125.742 25.84L126.792 26.905C126.442 27.315 126.017 27.625 125.517 27.835C125.017 28.045 124.487 28.15 123.927 28.15ZM132.45 28.15C131.9 28.15 131.41 28.035 130.98 27.805C130.55 27.565 130.21 27.24 129.96 26.83C129.72 26.42 129.6 25.955 129.6 25.435V23.365C129.6 22.845 129.725 22.38 129.975 21.97C130.225 21.56 130.565 21.24 130.995 21.01C131.425 20.77 131.91 20.65 132.45 20.65C133.1 20.65 133.685 20.82 134.205 21.16C134.735 21.49 135.15 21.94 135.45 22.51C135.76 23.07 135.915 23.705 135.915 24.415C135.915 25.115 135.76 25.75 135.45 26.32C135.15 26.88 134.735 27.325 134.205 27.655C133.685 27.985 133.1 28.15 132.45 28.15ZM128.595 31V20.8H130.245V22.735L129.96 24.49L130.245 26.23V31H128.595ZM132.18 26.59C132.58 26.59 132.93 26.5 133.23 26.32C133.54 26.13 133.78 25.87 133.95 25.54C134.13 25.21 134.22 24.83 134.22 24.4C134.22 23.97 134.13 23.59 133.95 23.26C133.78 22.93 133.54 22.675 133.23 22.495C132.93 22.305 132.58 22.21 132.18 22.21C131.78 22.21 131.425 22.305 131.115 22.495C130.805 22.675 130.565 22.93 130.395 23.26C130.225 23.59 130.14 23.97 130.14 24.4C130.14 24.83 130.225 25.21 130.395 25.54C130.565 25.87 130.805 26.13 131.115 26.32C131.425 26.5 131.78 26.59 132.18 26.59ZM140.596 28.15C139.896 28.15 139.261 27.985 138.691 27.655C138.121 27.315 137.666 26.86 137.326 26.29C136.996 25.72 136.831 25.085 136.831 24.385C136.831 23.685 136.996 23.055 137.326 22.495C137.666 21.935 138.121 21.49 138.691 21.16C139.261 20.82 139.896 20.65 140.596 20.65C141.306 20.65 141.946 20.815 142.516 21.145C143.086 21.475 143.536 21.925 143.866 22.495C144.206 23.055 144.376 23.685 144.376 24.385C144.376 25.085 144.206 25.72 143.866 26.29C143.536 26.86 143.086 27.315 142.516 27.655C141.946 27.985 141.306 28.15 140.596 28.15ZM140.596 26.56C141.006 26.56 141.366 26.47 141.676 26.29C141.996 26.1 142.241 25.84 142.411 25.51C142.591 25.18 142.681 24.805 142.681 24.385C142.681 23.965 142.591 23.595 142.411 23.275C142.231 22.955 141.986 22.705 141.676 22.525C141.366 22.335 141.006 22.24 140.596 22.24C140.196 22.24 139.836 22.335 139.516 22.525C139.206 22.705 138.961 22.955 138.781 23.275C138.611 23.595 138.526 23.965 138.526 24.385C138.526 24.805 138.611 25.18 138.781 25.51C138.961 25.84 139.206 26.1 139.516 26.29C139.836 26.47 140.196 26.56 140.596 26.56ZM145.748 28V20.8H147.398V28H145.748ZM147.398 23.995L146.828 23.71C146.828 22.8 147.028 22.065 147.428 21.505C147.838 20.935 148.453 20.65 149.273 20.65C149.633 20.65 149.958 20.715 150.248 20.845C150.538 20.975 150.808 21.185 151.058 21.475L149.978 22.585C149.848 22.445 149.703 22.345 149.543 22.285C149.383 22.225 149.198 22.195 148.988 22.195C148.528 22.195 148.148 22.34 147.848 22.63C147.548 22.92 147.398 23.375 147.398 23.995ZM152.966 28V17.8H154.616V28H152.966ZM151.241 22.3V20.8H156.341V22.3H151.241Z" fill="#212121"/>
<defs>
<linearGradient id="paint0_linear_572_16848" x1="2.95538" y1="13.5" x2="32.5604" y2="29.4502" gradientUnits="userSpaceOnUse">
<stop stop-color="white"/>
<stop offset="0.500128" stop-color="#FBFDFE"/>
<stop offset="1" stop-color="#F1FCFF"/>
</linearGradient>
</defs>
</svg>
