<svg width="21" height="16" viewBox="0 0 21 16" fill="none" xmlns="http://www.w3.org/2000/svg">
<path d="M9.34234 11.3544L18.4178 2.27899C18.5253 2.1788 18.6675 2.12426 18.8145 2.12685C18.9614 2.12944 19.1016 2.18897 19.2055 2.29289C19.3095 2.39682 19.369 2.53702 19.3716 2.68397C19.3742 2.83092 19.3196 2.97313 19.2194 3.08066L10.144 12.1561C10.0365 12.2563 9.89426 12.3108 9.74731 12.3082C9.60037 12.3057 9.46016 12.2461 9.35624 12.1422C9.25231 12.0383 9.19279 11.8981 9.19019 11.7511C9.1876 11.6042 9.24215 11.462 9.34234 11.3544ZM10.4995 4.75961C11.177 4.75893 11.8501 4.86877 12.4923 5.08482C12.6349 5.13283 12.7908 5.12221 12.9257 5.05528C13.0605 4.98835 13.1632 4.87061 13.2112 4.72795C13.2592 4.58528 13.2486 4.42939 13.1817 4.29456C13.1148 4.15973 12.997 4.05701 12.8543 4.009C11.6792 3.61288 10.4232 3.51953 9.20239 3.73759C7.98161 3.95564 6.83554 4.47806 5.87021 5.2565C4.90488 6.03495 4.15147 7.04428 3.67967 8.19113C3.20788 9.33797 3.03294 10.5853 3.17104 11.8177C3.18646 11.957 3.25296 12.0858 3.35771 12.179C3.46246 12.2722 3.59803 12.3233 3.73825 12.3225C3.75934 12.3239 3.7805 12.3239 3.80159 12.3225C3.95099 12.3059 4.08767 12.2306 4.18162 12.1133C4.27556 11.9959 4.31909 11.8461 4.30263 11.6967C4.27599 11.465 4.26179 11.2321 4.26009 10.999C4.26209 9.34481 4.92009 7.75897 6.08977 6.58929C7.25944 5.41962 8.84529 4.76162 10.4995 4.75961ZM19.764 6.26274C19.73 6.19644 19.6832 6.1375 19.6264 6.08927C19.5696 6.04104 19.5039 6.00446 19.433 5.98164C19.362 5.95882 19.2873 5.95019 19.213 5.95624C19.1388 5.9623 19.0664 5.98293 19.0001 6.01694C18.9338 6.05096 18.8749 6.0977 18.8267 6.1545C18.7784 6.21129 18.7419 6.27703 18.719 6.34796C18.6962 6.41889 18.6876 6.49362 18.6936 6.56789C18.6997 6.64215 18.7203 6.7145 18.7543 6.78079C19.3255 7.90174 19.6632 9.12694 19.7471 10.3822C19.8309 11.6375 19.6591 12.8967 19.2421 14.0837C19.2296 14.1216 19.2053 14.1545 19.1729 14.1778C19.1405 14.201 19.1015 14.2134 19.0616 14.2132H1.94018C1.90005 14.2122 1.86119 14.1989 1.82889 14.175C1.79659 14.1512 1.77241 14.118 1.75962 14.0799C1.27205 12.6825 1.12554 11.1888 1.33231 9.72333C1.53908 8.25784 2.09313 6.86299 2.94828 5.65505C3.80344 4.4471 4.93492 3.46104 6.24844 2.77906C7.56196 2.09709 9.01946 1.73894 10.4995 1.73447H10.5845C12.0223 1.74365 13.4378 2.0908 14.7167 2.74789C14.7832 2.78197 14.8558 2.80261 14.9304 2.80863C15.0049 2.81465 15.0799 2.80593 15.151 2.78297C15.2222 2.76002 15.2881 2.72327 15.345 2.67484C15.402 2.6264 15.4488 2.56722 15.4829 2.50068C15.517 2.43414 15.5376 2.36154 15.5437 2.28702C15.5497 2.2125 15.541 2.13752 15.518 2.06637C15.495 1.99523 15.4583 1.92929 15.4099 1.87235C15.3614 1.8154 15.3022 1.76855 15.2357 1.73447C13.7989 0.997518 12.2088 0.608908 10.594 0.600037H10.4995C8.83677 0.600857 7.19849 1.00014 5.72187 1.76444C4.24525 2.52873 2.97331 3.63578 2.0126 4.99282C1.05189 6.34987 0.430398 7.9174 0.200189 9.56407C-0.0300209 11.2107 0.137759 12.8886 0.689471 14.4571C0.780457 14.7165 0.949539 14.9414 1.17349 15.1009C1.39744 15.2603 1.66527 15.3465 1.94018 15.3476H19.0578C19.332 15.347 19.5994 15.2615 19.8231 15.1029C20.0469 14.9443 20.2161 14.7204 20.3076 14.4618C20.7768 13.1296 20.9706 11.7159 20.8771 10.3065C20.7837 8.89712 20.405 7.52139 19.764 6.26274Z" fill="#212121"/>
</svg>
