<svg width="22" height="20" viewBox="0 0 22 20" fill="none" xmlns="http://www.w3.org/2000/svg">
<path fill-rule="evenodd" clip-rule="evenodd" d="M5.77489 1.60541C5.01331 1.70784 4.56331 1.90142 4.23275 2.23235C3.90183 2.5629 3.70784 3.01331 3.60541 3.77489C3.50106 4.55082 3.5 5.57186 3.5 7V18.5H14.5V7C14.5 5.57186 14.4989 4.55082 14.3946 3.77489C14.2922 3.01331 14.0986 2.56331 13.7676 2.23275C13.4371 1.90183 12.9867 1.70784 12.2251 1.60541C11.4492 1.50106 10.4281 1.5 9 1.5C7.57186 1.5 6.55082 1.50106 5.77489 1.60541ZM15.5 12.5V18.5H17C17.2761 18.5 17.5 18.7239 17.5 19C17.5 19.2761 17.2761 19.5 17 19.5H1C0.723858 19.5 0.5 19.2761 0.5 19C0.5 18.7239 0.723858 18.5 1 18.5H2.5L2.5 6.96204C2.49999 5.58022 2.49998 4.49191 2.61434 3.64161C2.73165 2.7693 2.97752 2.07287 3.52545 1.52545C4.07286 0.977516 4.7693 0.73165 5.64161 0.614336C6.49191 0.499983 7.58022 0.499991 8.96203 0.5H9.03796C10.4198 0.499991 11.5081 0.499983 12.3584 0.614336C13.2307 0.73165 13.9271 0.977515 14.4746 1.52545C15.0225 2.07287 15.2683 2.7693 15.3857 3.64161C15.5 4.49191 15.5 5.58022 15.5 6.96204V11.5H16.667C16.6858 11.5 16.7045 11.5 16.723 11.5C16.9768 11.4997 17.1958 11.4995 17.3883 11.551C17.6426 11.6192 17.8746 11.7531 18.0608 11.9392C18.2469 12.1254 18.3808 12.3573 18.4489 12.6116C18.5005 12.8041 18.5003 13.0232 18.5 13.277C18.5 13.2955 18.5 13.3142 18.5 13.333V14.5C18.5 14.7652 18.6054 15.0196 18.7929 15.2071C18.9804 15.3946 19.2348 15.5 19.5 15.5C19.7652 15.5 20.0196 15.3946 20.2071 15.2071C20.3946 15.0196 20.5 14.7652 20.5 14.5V8.211C20.5 7.58065 20.495 7.36693 20.4356 7.17138C20.3759 6.97502 20.2614 6.79239 19.9122 6.26973L19.1391 5.10954C19.014 4.92207 18.8446 4.76836 18.6459 4.66204C18.4471 4.55571 18.2253 4.50006 17.9999 4.5C17.7237 4.49993 17.4999 4.27602 17.5 3.99988C17.5001 3.72374 17.724 3.49993 18.0001 3.5C18.39 3.5001 18.7738 3.59638 19.1176 3.78031C19.4614 3.96425 19.7545 4.23015 19.9709 4.55446L20.7438 5.71427L20.7712 5.75531C21.0751 6.21014 21.2833 6.52168 21.3924 6.88062C21.5003 7.23584 21.5002 7.60746 21.5 8.14142C21.5 8.16431 21.5 8.1875 21.5 8.211V14.5C21.5 15.0304 21.2893 15.5391 20.9142 15.9142C20.5391 16.2893 20.0304 16.5 19.5 16.5C18.9696 16.5 18.4609 16.2893 18.0858 15.9142C17.7107 15.5391 17.5 15.0304 17.5 14.5V13.333C17.5 12.9911 17.4957 12.9179 17.483 12.8705M15.5 12.5H16.667C17.0092 12.5 17.0823 12.5043 17.1297 12.517C17.2144 12.5397 17.2916 12.5843 17.3536 12.6464C17.4157 12.7084 17.4603 12.7857 17.483 12.8705" fill="#212121"/>
</svg>
