<svg width="132" height="132" viewBox="0 0 132 132" fill="none" xmlns="http://www.w3.org/2000/svg">
<path fill-rule="evenodd" clip-rule="evenodd" d="M116.471 15.5294H108.706V23.2941H116.471V15.5294ZM132 0H93.1765V38.8235H132V0ZM124.235 31.0588H100.941V7.76471H124.235V31.0588ZM15.5294 23.2941H23.2941V15.5294H15.5294V23.2941ZM0 38.8235H38.8235V0H0V38.8235ZM7.76471 7.76471H31.0588V31.0588H7.76471V7.76471ZM116.471 108.706H108.706V116.471H116.471V108.706ZM132 93.1765H93.1765V132H132V93.1765ZM124.235 124.235H100.941V100.941H124.235V124.235ZM69.8824 23.2941H77.6471V15.5294H85.4118V7.76471H77.6471V0H54.3529V7.76471H69.8824V15.5294H62.1176V31.0588H69.8824V23.2941ZM62.1176 31.0588H54.3529V38.8235H62.1176V31.0588ZM46.5882 23.2941V31.0588H54.3529V23.2941H46.5882ZM46.5882 15.5294H54.3529V7.76471H46.5882V15.5294ZM31.0588 54.3529H23.2941V62.1176H31.0588V54.3529ZM62.1176 46.5882V54.3529H85.4118V46.5882H77.6471V31.0588H69.8824V46.5882H62.1176ZM54.3529 38.8235H46.5882V54.3529H54.3529V38.8235ZM38.8235 46.5882H31.0588V54.3529H38.8235V46.5882ZM7.76471 46.5882V54.3529H23.2941V46.5882H7.76471ZM46.5882 62.1176V54.3529H38.8235V62.1176H46.5882ZM31.0588 69.8824H38.8235V62.1176H31.0588V69.8824ZM0 62.1176H7.76471V54.3529H0V62.1176ZM0 69.8824V77.6471H7.76471V69.8824H0ZM7.76471 77.6471V85.4118H15.5294V77.6471H7.76471ZM0 93.1765V108.706H7.76471V100.941H15.5294V93.1765H0ZM15.5294 108.706H31.0588V100.941H15.5294V108.706ZM100.941 69.8824V62.1176H93.1765V69.8824H100.941ZM46.5882 108.706H38.8235V116.471H46.5882V108.706ZM38.8235 116.471H0V132H7.76471V124.235H15.5294V132H23.2941V124.235H31.0588V132H54.3529V124.235H38.8235V116.471ZM69.8824 132V124.235H62.1176V132H69.8824ZM77.6471 132H85.4118V124.235H77.6471V132ZM77.6471 77.6471H93.1765V69.8824H85.4118V62.1176H77.6471V69.8824H69.8824V93.1765H85.4118V85.4118H77.6471V77.6471ZM54.3529 124.235H62.1176V116.471H54.3529V124.235ZM38.8235 93.1765H31.0588V100.941H46.5882V85.4118H38.8235V93.1765ZM31.0588 69.8824H23.2941V62.1176H15.5294V77.6471H23.2941V85.4118H15.5294V93.1765H31.0588V69.8824ZM62.1176 108.706V116.471H69.8824V108.706H77.6471V116.471H85.4118V100.941H62.1176V85.4118H54.3529V108.706H62.1176ZM38.8235 77.6471H46.5882V85.4118H54.3529V77.6471H62.1176V69.8824H38.8235V77.6471ZM54.3529 62.1176H62.1176V54.3529H54.3529V62.1176ZM62.1176 62.1176V69.8824H69.8824V62.1176H62.1176ZM93.1765 62.1176V54.3529H85.4118V62.1176H93.1765ZM100.941 46.5882H93.1765V54.3529H100.941V46.5882ZM108.706 46.5882V62.1176H116.471V46.5882H108.706ZM108.706 77.6471V85.4118H116.471V77.6471H124.235V69.8824H132V54.3529H124.235V62.1176H116.471V69.8824H100.941V77.6471H108.706ZM93.1765 85.4118H100.941V77.6471H93.1765V85.4118ZM132 85.4118V77.6471H124.235V85.4118H132Z" fill="black"/>
</svg>
