<svg width="24" height="24" viewBox="0 0 24 24" fill="none" xmlns="http://www.w3.org/2000/svg">
<rect width="24" height="24" rx="12" fill="#EE4D37"/>
<path fill-rule="evenodd" clip-rule="evenodd" d="M14.4532 4.96027C14.447 4.96003 14.4412 4.95946 14.4353 4.95888C13.0147 4.87075 11.549 5.37993 10.4477 6.48126C9.03768 7.89128 8.59843 9.89901 9.14115 11.6448L6.4337 14.3522C6.17124 14.6147 6.02091 14.9681 6.016 15.3349C6.01076 15.7014 6.15168 16.051 6.40752 16.3069L7.69317 17.5925C7.94901 17.8483 8.29858 17.9893 8.66508 17.984C9.0319 17.9791 9.38536 17.8288 9.64782 17.5663L12.3553 14.8589C14.101 15.4016 16.1087 14.9623 17.5188 13.5523C18.6168 12.4543 19.1266 10.9938 19.0752 9.57241C19.0747 9.56264 19.0739 9.55256 19.073 9.54247C19.0273 9.09066 18.7259 8.71133 18.2972 8.56724C17.8689 8.42282 17.3892 8.53869 17.0627 8.86585C16.6942 9.23428 16.2766 9.6519 15.9379 9.99062C15.7556 10.1729 15.4637 10.1768 15.2863 9.99935L14.0007 8.7137C13.8233 8.53628 13.8272 8.24439 14.0094 8.06215C14.3524 7.71914 14.7743 7.29657 15.1252 6.89938C15.4311 6.58586 15.5395 6.1258 15.4007 5.71432C15.2607 5.2983 14.8923 5.00521 14.4532 4.96027ZM14.3438 5.8783C14.4287 5.88987 14.4993 5.94788 14.5265 6.02927C14.555 6.11325 14.5323 6.20736 14.4685 6.27108C14.4613 6.27834 14.4543 6.28527 14.4477 6.29318C14.1087 6.67783 13.6987 7.08721 13.3666 7.41933C12.8195 7.96636 12.8078 8.84139 13.3404 9.37397L14.6261 10.6596C15.1586 11.1922 16.0337 11.1805 16.5807 10.6334L17.7058 9.50834C17.7791 9.43505 17.8866 9.40918 17.9826 9.44112C18.0737 9.47214 18.1391 9.55009 18.1541 9.64435C18.1919 10.8132 17.7756 12.0099 16.8759 12.9095C15.6584 14.1271 13.8967 14.4597 12.4164 13.8972C12.2469 13.8327 12.0525 13.876 11.9214 14.0071L9.00499 16.9235C8.91751 17.011 8.7999 17.0611 8.67741 17.0627C8.55557 17.0644 8.43862 17.0174 8.35344 16.9322L7.0678 15.6466C6.98262 15.5614 6.93566 15.4444 6.93729 15.3226C6.93893 15.2001 6.98903 15.0825 7.07652 14.995L9.99295 12.0786C10.124 11.9475 10.1673 11.7532 10.1028 11.5837C9.54027 10.1033 9.87297 8.34163 11.0905 7.12409C11.9875 6.22711 13.18 5.81051 14.3373 5.87774L14.3438 5.8783Z" fill="white"/>
</svg>
